<?xml version="1.0" encoding="utf-8"?>
<!-- Generator: Adobe Illustrator 26.0.2, SVG Export Plug-In . SVG Version: 6.00 Build 0)  -->
<svg version="1.1" id="Layer_1" xmlns="http://www.w3.org/2000/svg" xmlns:xlink="http://www.w3.org/1999/xlink" x="0px" y="0px"
	 viewBox="0 0 278 82" style="enable-background:new 0 0 278 82;" xml:space="preserve">
<style type="text/css">
	.st0{fill:#862833;}
	.st1{font-family:'ArialRoundedMTBold';}
	.st2{font-size:24.2371px;}
</style>
<g>
	<path class="st0" d="M45.4,27.7c0,7-0.1,14,0.1,21c0.1,3.1-0.6,4.4-4.1,4.4c-9.8,0-10,0.2-9.9-9.8c0-3.5-1-4.5-4.5-4.5
		c-3.4,0-5.1,0.5-5,4.6c0.2,9.8,0,9.7-10.1,9.7c-3.1,0-4.8-0.6-4.3-4.1c0.5-4,0-6.7-4.6-8.7C-2.8,37.7-2,28.4,4.1,25.8
		c3.1-1.3,3.7-3,3.6-5.9c-0.2-4.8,0-9.7-0.1-14.5C7.5,3,8.4,2.3,10.8,2.1c11.3-0.9,11.3-1,11.3,10.1c0,3.8,0.2,7.7,0,11.5
		c-0.2,4.2,2.6,3.3,5,3.4c2.5,0.1,4.5,0,4.4-3.6c-0.2-5.8,0.1-11.7-0.1-17.5c-0.1-2.8,0.7-3.7,3.6-3.8C45.4,2,45.4,1.9,45.4,12.2
		C45.4,17.4,45.4,22.6,45.4,27.7z M7.9,30.8c-1.7,0-2.6,0.9-2.7,2.4C5,35,6,36,7.8,35.9c1.5,0,2.6-0.7,2.7-2.3
		C10.5,31.8,9.5,30.9,7.9,30.8z"/>
	<path class="st0" d="M235.2,33.7c0.2-2.6,0.3-4.8,0.7-6.9c1.5-8.4,5.6-12.7,12.9-13.8c9.6-1.4,15.2,1.3,19.1,9.5
		c0.7,1.6,1.7,2.1,3.3,2.5c4.3,1.1,7.1,4,6.9,8.6c-0.1,4.5-2.7,7.5-7.3,8.2c-1.8,0.3-2.6,1.2-3,2.7c-1.8,7.2-8.9,10.1-18.3,9.2
		c-7.6-0.7-11.5-4.4-13.3-12.6C235.6,38.6,235.5,35.9,235.2,33.7z M255.3,34.2C255.3,34.2,255.3,34.2,255.3,34.2
		c0-2.5,0.1-5-0.1-7.4c-0.1-1.7-1.1-2.7-2.9-2.7c-1.6,0-2.5,1-2.7,2.4c-0.6,4.8-0.5,9.6-0.1,14.4c0.2,1.7,1.2,2.8,3,2.7
		c1.8,0,2.6-1.3,2.7-2.9C255.4,38.5,255.3,36.3,255.3,34.2z M266.5,33.8c0.4,1.5,1.5,2.5,3.2,2.3c1.4-0.2,2.5-1.1,2.4-2.7
		c-0.1-1.7-1.1-2.7-2.9-2.6C267.4,30.8,266.6,31.9,266.5,33.8z"/>
	<path class="st0" d="M84.4,33.4c0,5.3-0.1,10.7,0,16c0.1,2.5-0.6,4-3.3,3.5c-3.3-0.7-7.1,1.7-10.1-1.7c-0.8-1-2.1,0.5-3.1,1
		c-2.9,1.5-6,2.1-9.2,1.6c-3.9-0.6-6.9-2.6-7.3-6.9c-0.9-10.1-0.3-20.3-0.4-30.4c0-1.9,0.9-2.4,2.8-2.6C65,12.7,65,12.7,65,23.9
		c0,4.7-0.2,9.3-0.2,14c0,1.9,0.1,3.9,2.8,3.7c2.3-0.2,2.9-1.6,2.9-3.8c-0.1-6.8,0-13.6-0.1-20.5c0-2.5,0.7-3.4,3.4-3.5
		c10.6-0.4,10.6-0.6,10.6,10.2C84.4,27.1,84.4,30.3,84.4,33.4z"/>
	<path class="st0" d="M184.2,33.8c0,5.3-0.1,10.7,0,16c0.1,2.4-0.8,3.6-3.2,3.1c-3.6-0.7-7.6,1.8-10.8-1.6c-0.3-0.3-1.7,0.5-2.6,0.9
		c-10.9,4.6-17,0.6-17.1-11.3c0-7.7,0.1-15.3-0.1-23c-0.1-2.9,0.6-4.1,3.8-4.1c10.3-0.1,10.3-0.2,10.3,10c0,4.5,0,9,0,13.5
		c0,1.9-0.6,4.4,2.6,4.3c2.9-0.1,3.2-2.2,3.1-4.6c-0.1-6.5,0.1-13-0.1-19.5c-0.1-2.8,0.7-3.7,3.6-3.7c10.4-0.2,10.4-0.3,10.4,10
		C184.2,27.1,184.2,30.4,184.2,33.8z"/>
	<path class="st0" d="M118.6,33c0.7,3.1-2.2,8,2.6,12.1c1.2,1.1,1.2,6.6-1.4,8.1c-2.9,1.6-7,1.6-9.9-0.7c-2-1.6-3.2-1.6-5.4-0.3
		C98.3,55.8,91.5,54,89,48.5c-3.3-7.2-0.5-14.9,6.4-17.3c2.2-0.8,4.5-1,6.8-1.5c1.4-0.3,3.3-0.1,3-2.4c-0.3-2-2-2-3.5-1.8
		c-2.5,0.3-5,0.6-7.4,1.3c-2.6,0.8-3.7,0.4-4.1-2.6c-1.4-10.4-3.4-8,7.2-10.5c3.6-0.8,7.3-1,10.9-0.8c7.1,0.4,10.2,3.7,10.4,10.8
		C118.7,26.3,118.6,29,118.6,33z M105.9,40.4c-0.3-1,0.7-3-1.5-2.9c-2,0.1-3.9,1-4,3.5c-0.1,1.8,0.7,3,2.4,3.1
		C105.3,44.3,105.7,42.4,105.9,40.4z"/>
	<path class="st0" d="M232.1,26.4c-10.3-2.2-11.6-1.1-11,9.5c0.3,5.7,1.1,6.4,7.1,6c2.2-0.2,4.4-0.2,3.9,2.7
		c-0.5,2.8,3.3,6.6-2.1,8.3c-12.3,3.8-21.3-2.1-22.6-14.9c-0.3-3.5-0.3-7,0.3-10.5c2.1-11.6,10-16.7,21.4-14.2
		c3.4,0.7,5,2.1,4.1,5.7C232.7,21.5,232.5,24,232.1,26.4z"/>
	<path class="st0" d="M188.7,23.8c0-6.2,0.2-12.3-0.1-18.5c-0.2-3.6,0.7-5,4.7-4.9c9.1,0.2,9.1,0,9.1,9.3c0,7.2-0.2,14.3,0.1,21.5
		c0.2,4-1.8,8.4,2.3,12c1.5,1.3-1,10.3-2.4,10.6c-5.6,1.5-11.9-1.4-13.1-6.1c-0.9-3.4-0.5-7-0.6-10.4
		C188.7,32.8,188.7,28.3,188.7,23.8z"/>
	<path class="st0" d="M128.3,7.6c3.3-1.7,6.7-0.6,10.1-0.7c0.4,1.6,0.9,3.2,1.1,4.8c0.3,2.4,1.1,4.2,4,4c2.4-0.2,3.1,1.2,3.1,3.4
		c0,2.2-0.3,4-3.2,3.8c-1.2-0.1-2.6,0-2.9,1.4c-1.2,5.9-2.4,11.8,0.4,17.6c0,0,0.3,0.3,0.3,0.3c2.4,1.5,4.6,2.3,4.7,6.5
		c0.1,4.4-4.6,2.1-4.6,5c-1,0-2,0.1-3,0.1c-3.7-0.5-6-4.6-10.1-3.8c0,0,0-0.1,0-0.1c0.4-1.6-0.3-2.9-1-4.3c-0.8-7,0.6-14-0.8-21
		c-2.9-3.9-3.4-7.6,1-10.8c0,0,0.1-0.1,0.1-0.1C129.1,11.9,128.3,9.7,128.3,7.6z"/>
	<path class="st0" d="M141,41.9c-2.8-5.8-1.6-11.7-0.4-17.6c0.3-1.4,1.7-1.5,2.9-1.4c2.9,0.2,3.1-1.6,3.2-3.8c0-2.2-0.6-3.6-3.1-3.4
		c-2.8,0.2-3.6-1.6-4-4c-0.2-1.6-0.7-3.2-1.1-4.8c3.2-0.6,2.6,1.8,2.5,3.4c-0.2,2.8,0.9,4,3.7,3.7c2.3-0.2,4.2,0.4,3.4,3.2
		c-0.8,2.7,2.2,7.4-3.6,7.5c-2.9,0-3.7,1.2-3.6,3.9C141,33,140.9,37.5,141,41.9z"/>
	<path class="st0" d="M141.4,53.6c0-2.8,4.7-0.6,4.6-5c-0.1-4.1-2.3-4.9-4.7-6.5c2.4,0.5,6.3-2.4,6.2,3.4
		C147.4,53.7,147.6,53.7,141.4,53.6z"/>
	<path class="st0" d="M127.5,13.9c-4.4,3.2-3.9,6.9-1,10.8c-4.9,0.9-3.6-2.7-3.9-5.2C122,15.5,123.2,13.4,127.5,13.9z"/>
	<path class="st0" d="M128.3,50c4.2-0.9,6.5,3.3,10.1,3.8C134.3,54.3,130.5,54.2,128.3,50z"/>
	<path class="st0" d="M128.3,7.6c0,2.1,0.8,4.3-0.8,6.2C127.6,11.7,127,9.5,128.3,7.6z"/>
	<path class="st0" d="M127.3,45.6c0.7,1.3,1.3,2.7,1,4.3C127.1,48.7,126.8,47.3,127.3,45.6z"/>
</g>
<text transform="matrix(1 0 0 1 17.6265 80.9409)" class="st0 st1 st2">Cuidamos lo nuestro</text>
</svg>
